<mxfile host="app.diagrams.net" modified="2024-04-25T18:41:06.791Z" agent="Mozilla/5.0 (Windows NT 10.0; Win64; x64) AppleWebKit/537.36 (KHTML, like Gecko) Chrome/124.0.0.0 Safari/537.36" etag="ROjcOzomr3CdwpfTJtZC" version="24.3.0" type="device">
  <diagram name="Página-1" id="iSGURN4B6PdKg_Knmrer">
    <mxGraphModel dx="1257" dy="620" grid="1" gridSize="10" guides="1" tooltips="1" connect="1" arrows="1" fold="1" page="1" pageScale="1" pageWidth="827" pageHeight="1169" background="#F7F7F7" math="0" shadow="0">
      <root>
        <mxCell id="0" />
        <mxCell id="1" parent="0" />
        <mxCell id="Uj0NgcK6wiD9ONJnAKQ9-37" value="" style="edgeStyle=orthogonalEdgeStyle;rounded=0;orthogonalLoop=1;jettySize=auto;html=1;" edge="1" parent="1" source="Uj0NgcK6wiD9ONJnAKQ9-1" target="Uj0NgcK6wiD9ONJnAKQ9-29">
          <mxGeometry relative="1" as="geometry" />
        </mxCell>
        <mxCell id="Uj0NgcK6wiD9ONJnAKQ9-1" value="Usuário" style="swimlane;fontStyle=0;childLayout=stackLayout;horizontal=1;startSize=26;fillColor=#dae8fc;horizontalStack=0;resizeParent=1;resizeParentMax=0;resizeLast=0;collapsible=1;marginBottom=0;whiteSpace=wrap;html=1;strokeColor=#6c8ebf;" vertex="1" parent="1">
          <mxGeometry x="10" y="570" width="140" height="130" as="geometry" />
        </mxCell>
        <mxCell id="Uj0NgcK6wiD9ONJnAKQ9-2" value="ID_usuario" style="text;strokeColor=none;fillColor=none;align=left;verticalAlign=top;spacingLeft=4;spacingRight=4;overflow=hidden;rotatable=0;points=[[0,0.5],[1,0.5]];portConstraint=eastwest;whiteSpace=wrap;html=1;" vertex="1" parent="Uj0NgcK6wiD9ONJnAKQ9-1">
          <mxGeometry y="26" width="140" height="26" as="geometry" />
        </mxCell>
        <mxCell id="Uj0NgcK6wiD9ONJnAKQ9-3" value="Nome_usuario" style="text;strokeColor=none;fillColor=none;align=left;verticalAlign=top;spacingLeft=4;spacingRight=4;overflow=hidden;rotatable=0;points=[[0,0.5],[1,0.5]];portConstraint=eastwest;whiteSpace=wrap;html=1;" vertex="1" parent="Uj0NgcK6wiD9ONJnAKQ9-1">
          <mxGeometry y="52" width="140" height="26" as="geometry" />
        </mxCell>
        <mxCell id="Uj0NgcK6wiD9ONJnAKQ9-4" value="Email_usuario" style="text;strokeColor=none;fillColor=none;align=left;verticalAlign=top;spacingLeft=4;spacingRight=4;overflow=hidden;rotatable=0;points=[[0,0.5],[1,0.5]];portConstraint=eastwest;whiteSpace=wrap;html=1;" vertex="1" parent="Uj0NgcK6wiD9ONJnAKQ9-1">
          <mxGeometry y="78" width="140" height="22" as="geometry" />
        </mxCell>
        <mxCell id="Uj0NgcK6wiD9ONJnAKQ9-30" value="Senha_usuario" style="text;strokeColor=none;fillColor=none;align=left;verticalAlign=top;spacingLeft=4;spacingRight=4;overflow=hidden;rotatable=0;points=[[0,0.5],[1,0.5]];portConstraint=eastwest;whiteSpace=wrap;html=1;" vertex="1" parent="Uj0NgcK6wiD9ONJnAKQ9-1">
          <mxGeometry y="100" width="140" height="30" as="geometry" />
        </mxCell>
        <mxCell id="Uj0NgcK6wiD9ONJnAKQ9-5" value="Evento" style="swimlane;fontStyle=0;childLayout=stackLayout;horizontal=1;startSize=26;fillColor=#dae8fc;horizontalStack=0;resizeParent=1;resizeParentMax=0;resizeLast=0;collapsible=1;marginBottom=0;whiteSpace=wrap;html=1;strokeColor=#6c8ebf;" vertex="1" parent="1">
          <mxGeometry x="104" y="390" width="140" height="126" as="geometry" />
        </mxCell>
        <mxCell id="Uj0NgcK6wiD9ONJnAKQ9-6" value="ID_evento" style="text;strokeColor=none;fillColor=none;align=left;verticalAlign=top;spacingLeft=4;spacingRight=4;overflow=hidden;rotatable=0;points=[[0,0.5],[1,0.5]];portConstraint=eastwest;whiteSpace=wrap;html=1;" vertex="1" parent="Uj0NgcK6wiD9ONJnAKQ9-5">
          <mxGeometry y="26" width="140" height="26" as="geometry" />
        </mxCell>
        <mxCell id="Uj0NgcK6wiD9ONJnAKQ9-7" value="Nome_evento" style="text;strokeColor=none;fillColor=none;align=left;verticalAlign=top;spacingLeft=4;spacingRight=4;overflow=hidden;rotatable=0;points=[[0,0.5],[1,0.5]];portConstraint=eastwest;whiteSpace=wrap;html=1;" vertex="1" parent="Uj0NgcK6wiD9ONJnAKQ9-5">
          <mxGeometry y="52" width="140" height="26" as="geometry" />
        </mxCell>
        <mxCell id="Uj0NgcK6wiD9ONJnAKQ9-8" value="Descr_evento" style="text;strokeColor=none;fillColor=none;align=left;verticalAlign=top;spacingLeft=4;spacingRight=4;overflow=hidden;rotatable=0;points=[[0,0.5],[1,0.5]];portConstraint=eastwest;whiteSpace=wrap;html=1;" vertex="1" parent="Uj0NgcK6wiD9ONJnAKQ9-5">
          <mxGeometry y="78" width="140" height="22" as="geometry" />
        </mxCell>
        <mxCell id="Uj0NgcK6wiD9ONJnAKQ9-29" value="Data_evento" style="text;strokeColor=none;fillColor=none;align=left;verticalAlign=top;spacingLeft=4;spacingRight=4;overflow=hidden;rotatable=0;points=[[0,0.5],[1,0.5]];portConstraint=eastwest;whiteSpace=wrap;html=1;" vertex="1" parent="Uj0NgcK6wiD9ONJnAKQ9-5">
          <mxGeometry y="100" width="140" height="26" as="geometry" />
        </mxCell>
        <mxCell id="Uj0NgcK6wiD9ONJnAKQ9-38" value="" style="edgeStyle=orthogonalEdgeStyle;rounded=0;orthogonalLoop=1;jettySize=auto;html=1;" edge="1" parent="1" source="Uj0NgcK6wiD9ONJnAKQ9-9" target="Uj0NgcK6wiD9ONJnAKQ9-29">
          <mxGeometry relative="1" as="geometry" />
        </mxCell>
        <mxCell id="Uj0NgcK6wiD9ONJnAKQ9-9" value="ONG" style="swimlane;fontStyle=0;childLayout=stackLayout;horizontal=1;startSize=26;fillColor=#dae8fc;horizontalStack=0;resizeParent=1;resizeParentMax=0;resizeLast=0;collapsible=1;marginBottom=0;whiteSpace=wrap;html=1;strokeColor=#6c8ebf;" vertex="1" parent="1">
          <mxGeometry x="200" y="570" width="140" height="130" as="geometry" />
        </mxCell>
        <mxCell id="Uj0NgcK6wiD9ONJnAKQ9-10" value="ID_ong" style="text;strokeColor=none;fillColor=none;align=left;verticalAlign=top;spacingLeft=4;spacingRight=4;overflow=hidden;rotatable=0;points=[[0,0.5],[1,0.5]];portConstraint=eastwest;whiteSpace=wrap;html=1;" vertex="1" parent="Uj0NgcK6wiD9ONJnAKQ9-9">
          <mxGeometry y="26" width="140" height="26" as="geometry" />
        </mxCell>
        <mxCell id="Uj0NgcK6wiD9ONJnAKQ9-11" value="Nome_ong" style="text;strokeColor=none;fillColor=none;align=left;verticalAlign=top;spacingLeft=4;spacingRight=4;overflow=hidden;rotatable=0;points=[[0,0.5],[1,0.5]];portConstraint=eastwest;whiteSpace=wrap;html=1;" vertex="1" parent="Uj0NgcK6wiD9ONJnAKQ9-9">
          <mxGeometry y="52" width="140" height="26" as="geometry" />
        </mxCell>
        <mxCell id="Uj0NgcK6wiD9ONJnAKQ9-36" value="Cont_ong" style="text;strokeColor=none;fillColor=none;align=left;verticalAlign=top;spacingLeft=4;spacingRight=4;overflow=hidden;rotatable=0;points=[[0,0.5],[1,0.5]];portConstraint=eastwest;whiteSpace=wrap;html=1;" vertex="1" parent="Uj0NgcK6wiD9ONJnAKQ9-9">
          <mxGeometry y="78" width="140" height="26" as="geometry" />
        </mxCell>
        <mxCell id="Uj0NgcK6wiD9ONJnAKQ9-12" value="End_ong" style="text;strokeColor=none;fillColor=none;align=left;verticalAlign=top;spacingLeft=4;spacingRight=4;overflow=hidden;rotatable=0;points=[[0,0.5],[1,0.5]];portConstraint=eastwest;whiteSpace=wrap;html=1;" vertex="1" parent="Uj0NgcK6wiD9ONJnAKQ9-9">
          <mxGeometry y="104" width="140" height="26" as="geometry" />
        </mxCell>
        <mxCell id="Uj0NgcK6wiD9ONJnAKQ9-19" style="edgeStyle=orthogonalEdgeStyle;rounded=0;orthogonalLoop=1;jettySize=auto;html=1;exitX=1;exitY=0.5;exitDx=0;exitDy=0;entryX=0;entryY=0.5;entryDx=0;entryDy=0;endArrow=none;endFill=0;" edge="1" parent="1" source="Uj0NgcK6wiD9ONJnAKQ9-13" target="Uj0NgcK6wiD9ONJnAKQ9-14">
          <mxGeometry relative="1" as="geometry" />
        </mxCell>
        <mxCell id="Uj0NgcK6wiD9ONJnAKQ9-13" value="Ong" style="whiteSpace=wrap;html=1;align=center;fillColor=#dae8fc;strokeColor=#6c8ebf;" vertex="1" parent="1">
          <mxGeometry x="180" y="85" width="100" height="40" as="geometry" />
        </mxCell>
        <mxCell id="Uj0NgcK6wiD9ONJnAKQ9-14" value="Organiza" style="shape=rhombus;perimeter=rhombusPerimeter;whiteSpace=wrap;html=1;align=center;fillColor=#ffe6cc;strokeColor=#d79b00;" vertex="1" parent="1">
          <mxGeometry x="360" y="75" width="120" height="60" as="geometry" />
        </mxCell>
        <mxCell id="Uj0NgcK6wiD9ONJnAKQ9-20" style="edgeStyle=orthogonalEdgeStyle;rounded=0;orthogonalLoop=1;jettySize=auto;html=1;entryX=1;entryY=0.5;entryDx=0;entryDy=0;endArrow=none;endFill=0;" edge="1" parent="1" source="Uj0NgcK6wiD9ONJnAKQ9-15" target="Uj0NgcK6wiD9ONJnAKQ9-14">
          <mxGeometry relative="1" as="geometry" />
        </mxCell>
        <mxCell id="Uj0NgcK6wiD9ONJnAKQ9-15" value="Evento" style="whiteSpace=wrap;html=1;align=center;fillColor=#dae8fc;strokeColor=#6c8ebf;" vertex="1" parent="1">
          <mxGeometry x="560" y="85" width="100" height="40" as="geometry" />
        </mxCell>
        <mxCell id="Uj0NgcK6wiD9ONJnAKQ9-21" style="edgeStyle=orthogonalEdgeStyle;rounded=0;orthogonalLoop=1;jettySize=auto;html=1;entryX=0.5;entryY=1;entryDx=0;entryDy=0;endArrow=none;endFill=0;" edge="1" parent="1" source="Uj0NgcK6wiD9ONJnAKQ9-16" target="Uj0NgcK6wiD9ONJnAKQ9-15">
          <mxGeometry relative="1" as="geometry" />
        </mxCell>
        <mxCell id="Uj0NgcK6wiD9ONJnAKQ9-16" value="Participa" style="shape=rhombus;perimeter=rhombusPerimeter;whiteSpace=wrap;html=1;align=center;fillColor=#ffe6cc;strokeColor=#d79b00;" vertex="1" parent="1">
          <mxGeometry x="550" y="195" width="120" height="60" as="geometry" />
        </mxCell>
        <mxCell id="Uj0NgcK6wiD9ONJnAKQ9-22" style="edgeStyle=orthogonalEdgeStyle;rounded=0;orthogonalLoop=1;jettySize=auto;html=1;entryX=0.5;entryY=1;entryDx=0;entryDy=0;endArrow=none;endFill=0;" edge="1" parent="1" source="Uj0NgcK6wiD9ONJnAKQ9-17" target="Uj0NgcK6wiD9ONJnAKQ9-16">
          <mxGeometry relative="1" as="geometry" />
        </mxCell>
        <mxCell id="Uj0NgcK6wiD9ONJnAKQ9-17" value="Usuário" style="whiteSpace=wrap;html=1;align=center;fillColor=#dae8fc;strokeColor=#6c8ebf;" vertex="1" parent="1">
          <mxGeometry x="560" y="325" width="100" height="40" as="geometry" />
        </mxCell>
        <mxCell id="Uj0NgcK6wiD9ONJnAKQ9-23" value="(1,n)" style="text;html=1;align=center;verticalAlign=middle;resizable=0;points=[];autosize=1;strokeColor=none;fillColor=none;" vertex="1" parent="1">
          <mxGeometry x="295" y="75" width="50" height="30" as="geometry" />
        </mxCell>
        <mxCell id="Uj0NgcK6wiD9ONJnAKQ9-24" value="(1,n)" style="text;html=1;align=center;verticalAlign=middle;resizable=0;points=[];autosize=1;strokeColor=none;fillColor=none;" vertex="1" parent="1">
          <mxGeometry x="615" y="155" width="50" height="30" as="geometry" />
        </mxCell>
        <mxCell id="Uj0NgcK6wiD9ONJnAKQ9-45" value="" style="group" vertex="1" connectable="0" parent="1">
          <mxGeometry x="70" y="40" width="60" height="130" as="geometry" />
        </mxCell>
        <mxCell id="Uj0NgcK6wiD9ONJnAKQ9-41" value="Nome" style="ellipse;whiteSpace=wrap;html=1;align=center;" vertex="1" parent="Uj0NgcK6wiD9ONJnAKQ9-45">
          <mxGeometry y="34.21052631578947" width="60" height="27.368421052631582" as="geometry" />
        </mxCell>
        <mxCell id="Uj0NgcK6wiD9ONJnAKQ9-42" value="ID" style="ellipse;whiteSpace=wrap;html=1;align=center;fontStyle=4;" vertex="1" parent="Uj0NgcK6wiD9ONJnAKQ9-45">
          <mxGeometry width="60" height="27.368421052631582" as="geometry" />
        </mxCell>
        <mxCell id="Uj0NgcK6wiD9ONJnAKQ9-43" value="Contato" style="ellipse;whiteSpace=wrap;html=1;align=center;" vertex="1" parent="Uj0NgcK6wiD9ONJnAKQ9-45">
          <mxGeometry y="68.42105263157895" width="60" height="27.368421052631582" as="geometry" />
        </mxCell>
        <mxCell id="Uj0NgcK6wiD9ONJnAKQ9-44" value="Endereço" style="ellipse;whiteSpace=wrap;html=1;align=center;" vertex="1" parent="Uj0NgcK6wiD9ONJnAKQ9-45">
          <mxGeometry y="102.63157894736842" width="60" height="27.368421052631582" as="geometry" />
        </mxCell>
        <mxCell id="Uj0NgcK6wiD9ONJnAKQ9-47" value="" style="group" vertex="1" connectable="0" parent="1">
          <mxGeometry x="710" y="280" width="60" height="130" as="geometry" />
        </mxCell>
        <mxCell id="Uj0NgcK6wiD9ONJnAKQ9-48" value="Nome" style="ellipse;whiteSpace=wrap;html=1;align=center;" vertex="1" parent="Uj0NgcK6wiD9ONJnAKQ9-47">
          <mxGeometry y="34.21052631578947" width="60" height="27.368421052631582" as="geometry" />
        </mxCell>
        <mxCell id="Uj0NgcK6wiD9ONJnAKQ9-49" value="ID" style="ellipse;whiteSpace=wrap;html=1;align=center;fontStyle=4;" vertex="1" parent="Uj0NgcK6wiD9ONJnAKQ9-47">
          <mxGeometry width="60" height="27.368421052631582" as="geometry" />
        </mxCell>
        <mxCell id="Uj0NgcK6wiD9ONJnAKQ9-50" value="Email" style="ellipse;whiteSpace=wrap;html=1;align=center;" vertex="1" parent="Uj0NgcK6wiD9ONJnAKQ9-47">
          <mxGeometry y="68.42105263157895" width="60" height="27.368421052631582" as="geometry" />
        </mxCell>
        <mxCell id="Uj0NgcK6wiD9ONJnAKQ9-51" value="Senha" style="ellipse;whiteSpace=wrap;html=1;align=center;" vertex="1" parent="Uj0NgcK6wiD9ONJnAKQ9-47">
          <mxGeometry y="102.63157894736842" width="60" height="27.368421052631582" as="geometry" />
        </mxCell>
        <mxCell id="Uj0NgcK6wiD9ONJnAKQ9-52" value="" style="group" vertex="1" connectable="0" parent="1">
          <mxGeometry x="710" y="40" width="60" height="130" as="geometry" />
        </mxCell>
        <mxCell id="Uj0NgcK6wiD9ONJnAKQ9-53" value="Nome" style="ellipse;whiteSpace=wrap;html=1;align=center;" vertex="1" parent="Uj0NgcK6wiD9ONJnAKQ9-52">
          <mxGeometry y="34.21052631578947" width="60" height="27.368421052631582" as="geometry" />
        </mxCell>
        <mxCell id="Uj0NgcK6wiD9ONJnAKQ9-54" value="ID" style="ellipse;whiteSpace=wrap;html=1;align=center;fontStyle=4;" vertex="1" parent="Uj0NgcK6wiD9ONJnAKQ9-52">
          <mxGeometry width="60" height="27.368421052631582" as="geometry" />
        </mxCell>
        <mxCell id="Uj0NgcK6wiD9ONJnAKQ9-55" value="Descrição" style="ellipse;whiteSpace=wrap;html=1;align=center;" vertex="1" parent="Uj0NgcK6wiD9ONJnAKQ9-52">
          <mxGeometry y="68.42105263157895" width="60" height="27.368421052631582" as="geometry" />
        </mxCell>
        <mxCell id="Uj0NgcK6wiD9ONJnAKQ9-56" value="Data" style="ellipse;whiteSpace=wrap;html=1;align=center;" vertex="1" parent="Uj0NgcK6wiD9ONJnAKQ9-52">
          <mxGeometry y="102.63157894736842" width="60" height="27.368421052631582" as="geometry" />
        </mxCell>
        <mxCell id="Uj0NgcK6wiD9ONJnAKQ9-60" value="" style="strokeWidth=2;html=1;shape=mxgraph.flowchart.annotation_2;align=left;labelPosition=right;pointerEvents=1;shadow=1;fillColor=#dae8fc;strokeColor=#6c8ebf;" vertex="1" parent="1">
          <mxGeometry x="660" y="55" width="50" height="100" as="geometry" />
        </mxCell>
        <mxCell id="Uj0NgcK6wiD9ONJnAKQ9-62" value="" style="strokeWidth=2;html=1;shape=mxgraph.flowchart.annotation_2;align=left;labelPosition=right;pointerEvents=1;shadow=1;fillColor=#dae8fc;strokeColor=#6c8ebf;" vertex="1" parent="1">
          <mxGeometry x="660" y="295" width="50" height="100" as="geometry" />
        </mxCell>
        <mxCell id="Uj0NgcK6wiD9ONJnAKQ9-71" value="" style="strokeWidth=2;html=1;shape=mxgraph.flowchart.annotation_2;align=left;labelPosition=right;pointerEvents=1;shadow=1;fillColor=#dae8fc;strokeColor=#6c8ebf;rotation=-180;" vertex="1" parent="1">
          <mxGeometry x="130" y="55" width="50" height="100" as="geometry" />
        </mxCell>
      </root>
    </mxGraphModel>
  </diagram>
</mxfile>
